<svg xmlns="http://www.w3.org/2000/svg" width="24" height="24" viewBox="0 0 24 24">
  <path id="Icon_metro-qrcode" data-name="Icon metro-qrcode" d="M10.071,3.428h-6v6h6Zm1.5-1.5v9h-9v-9Zm-6,3h3v3h-3Zm19.5-1.5h-6v6h6v-6Zm1.5-1.5v9h-9v-9h9Zm-6,3h3v3h-3Zm-10.5,13.5h-6v6h6Zm1.5-1.5v9h-9v-9Zm-6,3h3v3h-3Zm7.5-18h1.5v1.5h-1.5Zm1.5,1.5h1.5v1.5h-1.5Zm-1.5,1.5h1.5v1.5h-1.5Zm1.5,1.5h1.5v1.5h-1.5Zm-1.5,1.5h1.5v1.5h-1.5Zm1.5,1.5h1.5v1.5h-1.5Zm-1.5,1.5h1.5v1.5h-1.5Zm0,3h1.5v1.5h-1.5Zm1.5,1.5h1.5v1.5h-1.5Zm-1.5,1.5h1.5v1.5h-1.5Zm1.5,1.5h1.5v1.5h-1.5Zm-1.5,1.5h1.5v1.5h-1.5Zm1.5,1.5h1.5v1.5h-1.5Zm-1.5,1.5h1.5v1.5h-1.5Zm1.5,1.5h1.5v1.5h-1.5Zm10.5-10.5h1.5v1.5h-1.5Zm-21,0h1.5v1.5h-1.5Zm1.5-1.5h1.5v1.5h-1.5Zm-3,0h1.5v1.5h-1.5Zm6,0h1.5v1.5h-1.5Zm1.5,1.5h1.5v1.5h-1.5Zm1.5-1.5h1.5v1.5h-1.5Zm4.5,1.5h1.5v1.5h-1.5Zm1.5-1.5h1.5v1.5h-1.5Zm1.5,1.5h1.5v1.5h-1.5Zm1.5-1.5h1.5v1.5h-1.5Zm1.5,1.5h1.5v1.5h-1.5Zm1.5-1.5h1.5v1.5h-1.5Zm1.5,4.5h1.5v1.5h-1.5Zm-9,0h1.5v1.5h-1.5Zm1.5-1.5h1.5v1.5h-1.5Zm1.5,1.5h1.5v1.5h-1.5Zm3,0h1.5v1.5h-1.5Zm1.5-1.5h1.5v1.5h-1.5Zm1.5,4.5h1.5v1.5h-1.5Zm-9,0h1.5v1.5h-1.5Zm1.5-1.5h1.5v1.5h-1.5Zm3,0h1.5v1.5h-1.5Zm1.5,1.5h1.5v1.5h-1.5Zm1.5-1.5h1.5v1.5h-1.5Zm1.5,4.5h1.5v1.5h-1.5Zm-7.5-1.5h1.5v1.5h-1.5Zm1.5,1.5h1.5v1.5h-1.5Zm1.5-1.5h1.5v1.5h-1.5Zm1.5,1.5h1.5v1.5h-1.5Zm-4.5,1.5h1.5v1.5h-1.5Zm3,0h1.5v1.5h-1.5Zm3,0h1.5v1.5h-1.5Z" transform="translate(-2.571 -1.928)" fill="#a0acb7"/>
</svg>
